<svg width="42" height="31" viewBox="0 0 42 31" fill="none" xmlns="http://www.w3.org/2000/svg">
<path d="M40.9555 24.0208L38.6847 8.06251C38.1014 3.95834 34.5808 0.916672 30.4352 0.916672H11.5613C7.41568 0.916672 3.89505 3.95834 3.31175 8.06251L1.04105 24.0208C0.582739 27.2292 3.06177 30.0833 6.29075 30.0833C7.70734 30.0833 9.04059 29.5208 10.0405 28.5208L14.7486 23.8333H27.2479L31.9351 28.5208C32.9351 29.5208 34.2892 30.0833 35.6849 30.0833C38.9347 30.0833 41.4138 27.2292 40.9555 24.0208ZM18.915 13.4167H14.7486V17.5833H12.6654V13.4167H8.49896V11.3333H12.6654V7.16667H14.7486V11.3333H18.915V13.4167ZM27.2479 11.3333C26.1021 11.3333 25.1647 10.3958 25.1647 9.25001C25.1647 8.10417 26.1021 7.16667 27.2479 7.16667C28.3937 7.16667 29.3311 8.10417 29.3311 9.25001C29.3311 10.3958 28.3937 11.3333 27.2479 11.3333ZM31.4143 17.5833C30.2686 17.5833 29.3311 16.6458 29.3311 15.5C29.3311 14.3542 30.2686 13.4167 31.4143 13.4167C32.5601 13.4167 33.4975 14.3542 33.4975 15.5C33.4975 16.6458 32.5601 17.5833 31.4143 17.5833Z" fill="#2A7AE4"/>
</svg>
